<?xml version="1.0" encoding="iso-8859-1"?>
<!-- Generator: Adobe Illustrator 19.0.0, SVG Export Plug-In . SVG Version: 6.00 Build 0)  -->
<svg version="1.1" id="Layer_1" xmlns="http://www.w3.org/2000/svg" xmlns:xlink="http://www.w3.org/1999/xlink" x="0px" y="0px"
	 viewBox="0 0 297 297" style="enable-background:new 0 0 297 297;" xml:space="preserve">
<g>
	<g>
		<g>
			<g>
				<g>
					<g>
						<circle style="fill:#ffa64d;" cx="148.5" cy="148.5" r="148.5"/>
					</g>
				</g>
			</g>
		</g>
	</g>
	<path style="fill:#663300;" d="M296.905,143.44l-71.552-71.565L71.497,224.971l71.928,71.933C145.11,296.961,146.8,297,148.5,297
		c82.014,0,148.5-66.486,148.5-148.5C297,146.806,296.961,145.121,296.905,143.44z"/>
	<g>
		<path style="fill:#2ECC71;" d="M211.333,231H85.666C74.805,231,66,222.195,66,211.333V85.666C66,74.805,74.805,66,85.666,66
			h125.667C222.195,66,231,74.805,231,85.666v125.667C231,222.195,222.195,231,211.333,231z"/>
	</g>
	<g>
		<path style="fill:#2ECC71;" d="M211.333,66h-63.167v165h63.167c10.862,0,19.667-8.805,19.667-19.667V85.667
			C231,74.805,222.195,66,211.333,66z"/>
	</g>
	<g>
		<circle style="fill:#FFFFFF;" cx="99" cy="148.5" r="16.5"/>
		<circle style="fill:#E3E5E4;" cx="198" cy="148.5" r="16.5"/>
		<circle style="fill:#FFFFFF;" cx="148.5" cy="198" r="16.5"/>
		<path style="fill:#E3E5E4;" d="M148.5,181.5c-0.112,0-0.221,0.015-0.333,0.017v32.966c0.112,0.002,0.221,0.017,0.333,0.017
			c9.113,0,16.5-7.387,16.5-16.5S157.613,181.5,148.5,181.5z"/>
		<circle style="fill:#E3E5E4;" cx="198" cy="198" r="16.5"/>
		<path style="fill:#FFFFFF;" d="M186.469,114.066C189.671,116.522,193.662,118,198,118c10.477,0,19-8.523,19-19s-8.523-19-19-19
			c-9.627,0-17.586,7.204-18.816,16.5h-11.868c-1.23-9.296-9.189-16.5-18.816-16.5s-17.586,7.204-18.816,16.5h-11.868
			C116.586,87.204,108.627,80,99,80c-10.477,0-19,8.523-19,19s8.523,19,19,19c9.627,0,17.586-7.204,18.816-16.5h11.868
			c1.23,9.296,9.189,16.5,18.816,16.5s17.586-7.204,18.816-16.5h11.868c0.446,3.369,1.774,6.456,3.75,9.031l-22.903,22.903
			c-3.202-2.457-7.193-3.934-11.531-3.934c-10.477,0-19,8.523-19,19c0,4.338,1.478,8.329,3.934,11.531l-22.903,22.903
			C107.329,180.478,103.338,179,99,179c-10.477,0-19,8.523-19,19s8.523,19,19,19s19-8.523,19-19c0-4.338-1.478-8.329-3.934-11.531
			l22.903-22.903c3.202,2.457,7.193,3.934,11.531,3.934c10.477,0,19-8.523,19-19c0-4.338-1.478-8.329-3.934-11.531L186.469,114.066z
			 M198,85c7.72,0,14,6.28,14,14s-6.28,14-14,14s-14-6.28-14-14S190.28,85,198,85z M99,113c-7.72,0-14-6.28-14-14s6.28-14,14-14
			s14,6.28,14,14S106.72,113,99,113z M148.5,113c-7.72,0-14-6.28-14-14s6.28-14,14-14s14,6.28,14,14S156.22,113,148.5,113z M99,212
			c-7.72,0-14-6.28-14-14s6.28-14,14-14s14,6.28,14,14S106.72,212,99,212z M148.5,162.5c-7.72,0-14-6.28-14-14s6.28-14,14-14
			s14,6.28,14,14S156.22,162.5,148.5,162.5z"/>
		<path style="fill:#E3E5E4;" d="M198,80c-9.627,0-17.586,7.204-18.816,16.5h-11.868c-1.23-9.296-9.189-16.5-18.816-16.5
			c-0.112,0-0.221,0.014-0.333,0.016v5.001C148.279,85.014,148.388,85,148.5,85c7.72,0,14,6.28,14,14s-6.28,14-14,14
			c-0.112,0-0.221-0.014-0.333-0.017v5.001c0.112,0.002,0.221,0.016,0.333,0.016c9.627,0,17.586-7.204,18.816-16.5h11.868
			c0.446,3.369,1.774,6.456,3.75,9.031l-22.903,22.903c-3.202-2.457-7.193-3.934-11.531-3.934c-0.112,0-0.221,0.015-0.333,0.017v5
			c0.112-0.003,0.221-0.017,0.333-0.017c7.72,0,14,6.28,14,14s-6.28,14-14,14c-0.112,0-0.221-0.014-0.333-0.017v5.003
			c0.112,0.002,0.221,0.014,0.333,0.014c10.477,0,19-8.523,19-19c0-4.338-1.478-8.329-3.934-11.531l22.903-22.903
			C189.671,116.522,193.662,118,198,118c10.477,0,19-8.523,19-19S208.477,80,198,80z M198,113c-7.72,0-14-6.28-14-14s6.28-14,14-14
			s14,6.28,14,14S205.72,113,198,113z"/>
		<path style="fill:#FFFFFF;" d="M134.5,99c0-7.607,6.102-13.804,13.667-13.983v-5.001c-9.476,0.165-17.267,7.297-18.483,16.484
			h-11.868C116.586,87.204,108.627,80,99,80c-10.477,0-19,8.523-19,19s8.523,19,19,19c9.627,0,17.586-7.204,18.816-16.5h11.868
			c1.216,9.188,9.007,16.319,18.483,16.484v-5.001C140.602,112.804,134.5,106.607,134.5,99z M99,113c-7.72,0-14-6.28-14-14
			s6.28-14,14-14s14,6.28,14,14S106.72,113,99,113z"/>
	</g>
</g>
<g>
</g>
<g>
</g>
<g>
</g>
<g>
</g>
<g>
</g>
<g>
</g>
<g>
</g>
<g>
</g>
<g>
</g>
<g>
</g>
<g>
</g>
<g>
</g>
<g>
</g>
<g>
</g>
<g>
</g>
</svg>
